<?xml version="1.0" encoding="UTF-8"?>
<svg id="Layer_1" data-name="Layer 1" xmlns="http://www.w3.org/2000/svg" viewBox="0 0 322.89 345.77">
  <defs>
    <style>
      .cls-1 {
        fill: #fff;
        stroke-width: 0px;
      }
    </style>
  </defs>
  <path class="cls-1" d="m316.21,272.5c2.06,3.03,5.38,5.85,5.96,9.14,3.07,17.56-4.04,32.3-15.02,45.1-17.6,20.51-44.36,24.67-67.93,11.35-22.04-12.46-38.44-31.03-53.8-50.53-31.51-40-56.27-84.25-80.28-128.95-1.73-3.21-3.52-6.39-5.78-10.47-17.82,21.42-36.59,41.13-49.43,65.27-2.47,4.64-1.65,10.92-3.05,16.26-.89,3.41-2.29,8.23-4.82,9.34-4.77,2.09-8.29-1.9-10.02-6.25-5.7-14.35-8.29-29.75-.95-43.46,10.22-19.11,22.31-37.34,34.89-55.04,15.61-21.95,32.58-42.94,48.84-64.44,2.19-2.9,4.61-6.2,5.19-9.61,1.15-6.8,5.14-6.16,9.7-4.82,14.18,4.19,20.57,16.53,13.99,29.83-6.59,13.31-14.9,25.77-22.14,38.07,29.89-2.77,74.32-28.63,84.4-64.23,5.57-19.65-1.48-35.03-20.11-43.27-18.78-8.31-38.24-7.74-57.64-3.17-36.26,8.55-66.5,27.06-89.66,56.46-8.77,11.13-15.07,23.56-15.87,38.07-.5,9.16,1.21,17.59,9.37,23.45,1.68,1.2,2.86,3.1,5.14,5.65-13.63.79-22.5-5.05-28.47-14.91-11.94-19.75-13.49-49.52,7.29-71.35,16.86-17.7,37.88-28.39,60.54-36.24C112.78,1.19,149.76-4.32,187.77,3.87c8.27,1.78,16.5,4.87,24.04,8.74,27.74,14.22,36.38,45.02,20.9,72.75-7.72,13.83-18.98,24.34-32.06,32.85-21.63,14.06-45.2,23.26-70.83,26.94-2.14.31-4.24.88-7.22,1.51,7.91,12.05,15.34,23.51,22.9,34.88,22.3,33.5,45.35,66.45,74.6,94.44,13.69,13.09,28.07,25.98,47.31,29.52,9.52,1.75,20.02.87,29.61-1.11,11.12-2.29,15.81-10,16.23-21.57.11-2.92.02-5.84.02-8.76.98-.52,1.95-1.03,2.93-1.55h.01Z"/>
</svg>